<svg xmlns="http://www.w3.org/2000/svg" version="1.1" xmlns:xlink="http://www.w3.org/1999/xlink" width="172.03" height="172.06"><svg id="SvgjsSvg1001" xmlns="http://www.w3.org/2000/svg" baseProfile="tiny" version="1.2" viewBox="0 0 172.03 172.06">
  <!-- Generator: Adobe Illustrator 29.6.1, SVG Export Plug-In . SVG Version: 2.1.1 Build 9)  -->
  <path d="M30.4,86.03h141.63C172.03,38.51,133.54,0,86,0S0,38.51,0,86.03c-.01,47.5,38.5,86.04,86,86.04,32.6,0,60.94-18.13,75.54-44.83L30.4,86.03Z" fill="#f59c00" fill-rule="evenodd"></path>
  <path d="M30.4,86.03h112.33c0-31.35-25.42-56.76-56.74-56.76s-56.78,25.41-56.78,56.76,25.41,56.78,56.78,56.78c19.39,0,36.52-9.75,46.75-24.62L30.4,86.03Z" fill="#1d1d1b" fill-rule="evenodd"></path>
  <path d="M34.25,49.92c0-4.41,3.57-7.95,7.94-7.95s7.97,3.55,7.97,7.95-3.57,7.96-7.97,7.96-7.94-3.56-7.94-7.96h0Z" fill="#fff" fill-rule="evenodd"></path>
</svg><style>@media (prefers-color-scheme: light) { :root { filter: none; } }
@media (prefers-color-scheme: dark) { :root { filter: none; } }
</style></svg>